<?xml version="1.0" encoding="UTF-8" standalone="no"?>
<!-- Created with Inkscape (http://www.inkscape.org/) -->

<svg
   version="1.1"
   id="svg43609"
   width="800"
   height="800"
   viewBox="0 0 800 800"
   sodipodi:docname="ship-wheel-vector.svg"
   inkscape:version="1.2 (dc2aedaf03, 2022-05-15)"
   xmlns:inkscape="http://www.inkscape.org/namespaces/inkscape"
   xmlns:sodipodi="http://sodipodi.sourceforge.net/DTD/sodipodi-0.dtd"
   xmlns="http://www.w3.org/2000/svg"
   xmlns:svg="http://www.w3.org/2000/svg">
  <defs
     id="defs43613">
    <clipPath
       clipPathUnits="userSpaceOnUse"
       id="clipPath43625">
      <path
         d="M 0,600 H 600 V 0 H 0 Z"
         id="path43623" />
    </clipPath>
  </defs>
  <sodipodi:namedview
     id="namedview43611"
     pagecolor="#ffffff"
     bordercolor="#000000"
     borderopacity="0.25"
     inkscape:showpageshadow="2"
     inkscape:pageopacity="0.0"
     inkscape:pagecheckerboard="0"
     inkscape:deskcolor="#d1d1d1"
     showgrid="false"
     inkscape:zoom="1.04625"
     inkscape:cx="400"
     inkscape:cy="400.4779"
     inkscape:window-width="1920"
     inkscape:window-height="1017"
     inkscape:window-x="-8"
     inkscape:window-y="-8"
     inkscape:window-maximized="1"
     inkscape:current-layer="g43617">
    <inkscape:page
       x="0"
       y="0"
       id="page43615"
       width="800"
       height="800" />
  </sodipodi:namedview>
  <g
     id="g43617"
     inkscape:groupmode="layer"
     inkscape:label="Page 1"
     transform="matrix(1.3333333,0,0,-1.3333333,0,800)">
    <g
       id="g43619">
      <g
         id="g43621"
         clip-path="url(#clipPath43625)">
        <g
           id="g43627"
           transform="translate(543.7041,336.7051)">
          <path
             d="M 0,0 C -0.279,0.23 -0.657,0.619 -1.199,1.017 -1.466,1.22 -1.76,1.444 -2.08,1.689 -2.414,1.915 -2.789,2.142 -3.18,2.392 -3.978,2.867 -4.912,3.338 -5.958,3.776 -6.475,4.009 -7.049,4.167 -7.618,4.377 -8.21,4.536 -8.81,4.73 -9.442,4.868 c -1.267,0.288 -2.623,0.483 -4.036,0.61 -2.829,0.221 -5.881,0.132 -8.924,-0.191 -1.526,-0.132 -3.048,-0.337 -4.547,-0.544 -1.502,-0.224 -2.982,-0.444 -4.411,-0.658 -2.866,-0.445 -5.559,-0.85 -7.889,-1.075 -2.326,-0.247 -4.296,-0.239 -5.658,-0.168 -0.685,0.044 -1.216,0.115 -1.575,0.184 -0.361,0.06 -0.551,0.092 -0.551,0.092 0,0 0.193,0 0.557,-10e-4 0.364,-0.014 0.896,0.027 1.569,0.054 1.346,0.074 3.251,0.37 5.52,0.801 2.275,0.463 4.926,1.002 7.769,1.58 2.852,0.574 5.931,1.095 9.052,1.418 1.56,0.142 3.131,0.239 4.683,0.244 1.553,0.032 3.085,-0.093 4.562,-0.26 1.475,-0.176 2.887,-0.485 4.2,-0.87 0.654,-0.19 1.28,-0.424 1.883,-0.647 C -6.653,5.164 -6.073,4.944 -5.553,4.653 -4.489,4.11 -3.583,3.499 -2.824,2.908 -2.453,2.601 -2.102,2.324 -1.789,2.051 -1.492,1.761 -1.22,1.494 -0.974,1.253 -0.466,0.789 -0.182,0.331 0.065,0.064 0.298,-0.219 0.42,-0.369 0.42,-0.369 0.42,-0.369 0.274,-0.241 0,0 m -125.921,-96.11 c -4.477,-5.063 -9.298,-9.814 -14.43,-14.214 -23.214,-19.904 -52.746,-32.633 -85.128,-34.739 -3.157,-0.206 -6.336,-0.321 -9.544,-0.321 -3.602,0 -7.172,0.137 -10.71,0.395 -32.279,2.357 -61.669,15.277 -84.723,35.313 -5.101,4.435 -9.89,9.218 -14.333,14.312 -20.131,23.078 -33.121,52.537 -35.487,84.902 -0.26,3.543 -0.396,7.119 -0.396,10.727 0,3.202 0.114,6.379 0.318,9.529 2.118,32.607 15.003,62.327 35.142,85.617 4.42,5.113 9.194,9.912 14.277,14.368 23.261,20.398 53.051,33.518 85.785,35.778 3.346,0.231 6.721,0.358 10.127,0.358 3.405,0 6.78,-0.127 10.126,-0.358 32.555,-2.247 62.203,-15.234 85.409,-35.443 5.096,-4.439 9.883,-9.226 14.321,-14.323 20.448,-23.485 33.498,-53.565 35.51,-86.58 0.179,-2.96 0.282,-5.94 0.282,-8.946 0,-3.805 -0.148,-7.576 -0.436,-11.309 -2.505,-32.487 -15.723,-62.016 -36.11,-85.066 m -101.8,-117.263 c 0.144,-1.562 0.241,-3.132 0.245,-4.685 0.033,-1.551 -0.093,-3.085 -0.259,-4.56 -0.175,-1.477 -0.486,-2.89 -0.87,-4.2 -0.192,-0.656 -0.424,-1.282 -0.648,-1.883 -0.272,-0.585 -0.492,-1.166 -0.783,-1.688 -0.544,-1.061 -1.154,-1.968 -1.745,-2.726 -0.309,-0.371 -0.584,-0.724 -0.858,-1.035 -0.291,-0.298 -0.557,-0.571 -0.798,-0.817 -0.464,-0.508 -0.921,-0.792 -1.19,-1.039 -0.281,-0.231 -0.433,-0.354 -0.433,-0.354 0,0 0.129,0.145 0.37,0.42 0.229,0.28 0.62,0.658 1.016,1.2 0.203,0.265 0.429,0.559 0.673,0.88 0.227,0.334 0.452,0.709 0.702,1.099 0.477,0.798 0.946,1.734 1.385,2.779 0.232,0.516 0.391,1.09 0.602,1.661 0.159,0.591 0.352,1.19 0.491,1.824 0.287,1.266 0.48,2.622 0.608,4.034 0.223,2.829 0.133,5.883 -0.189,8.926 -0.132,1.524 -0.337,3.048 -0.545,4.547 -0.224,1.502 -0.445,2.98 -0.658,4.411 -0.445,2.864 -0.85,5.558 -1.075,7.888 -0.248,2.327 -0.24,4.295 -0.168,5.659 0.044,0.683 0.116,1.215 0.184,1.575 0.06,0.359 0.093,0.551 0.093,0.551 0,0 0,-0.195 -0.001,-0.559 -0.017,-0.362 0.025,-0.895 0.053,-1.567 0.075,-1.348 0.371,-3.251 0.8,-5.522 0.463,-2.273 1.002,-4.926 1.58,-7.767 0.575,-2.855 1.097,-5.931 1.418,-9.052 m -138.477,76.571 c -0.268,-0.245 -0.614,-0.651 -1.071,-1.145 -0.9,-1.006 -2.037,-2.561 -3.337,-4.471 -1.282,-1.935 -2.775,-4.191 -4.375,-6.61 -1.613,-2.424 -3.419,-4.968 -5.398,-7.403 -1.004,-1.205 -2.046,-2.383 -3.141,-3.485 -1.074,-1.12 -2.248,-2.115 -3.408,-3.041 -1.168,-0.92 -2.386,-1.7 -3.586,-2.356 -0.597,-0.328 -1.206,-0.605 -1.788,-0.873 -0.607,-0.22 -1.173,-0.475 -1.747,-0.638 -1.135,-0.367 -2.209,-0.577 -3.162,-0.695 -0.479,-0.044 -0.925,-0.098 -1.339,-0.127 -0.414,-0.003 -0.797,-0.008 -1.141,-0.012 -0.686,-0.03 -1.211,0.092 -1.577,0.106 -0.361,0.036 -0.556,0.056 -0.556,0.056 0,0 0.195,0.013 0.558,0.036 0.36,0.037 0.905,0.027 1.568,0.13 0.331,0.044 0.698,0.093 1.097,0.146 0.396,0.077 0.823,0.182 1.275,0.281 0.901,0.228 1.894,0.556 2.943,0.986 0.53,0.201 1.05,0.494 1.6,0.749 0.531,0.306 1.093,0.592 1.637,0.942 1.099,0.692 2.194,1.515 3.283,2.423 2.157,1.843 4.255,4.065 6.178,6.446 0.984,1.171 1.915,2.393 2.83,3.6 0.903,1.221 1.793,2.422 2.653,3.584 1.711,2.34 3.329,4.531 4.818,6.337 1.47,1.821 2.868,3.207 3.882,4.121 0.516,0.452 0.942,0.777 1.246,0.984 0.296,0.21 0.453,0.324 0.453,0.324 0,0 -0.137,-0.138 -0.395,-0.395 m 123.288,348.924 c -0.143,1.561 -0.239,3.131 -0.244,4.684 -0.033,1.552 0.093,3.086 0.259,4.561 0.175,1.476 0.485,2.889 0.871,4.2 0.19,0.656 0.423,1.282 0.647,1.883 0.273,0.585 0.492,1.165 0.783,1.687 0.543,1.061 1.155,1.969 1.745,2.727 0.308,0.371 0.584,0.723 0.857,1.035 0.291,0.297 0.558,0.57 0.8,0.817 0.463,0.507 0.92,0.791 1.19,1.039 0.28,0.231 0.432,0.354 0.432,0.354 0,0 -0.129,-0.146 -0.37,-0.42 -0.228,-0.281 -0.62,-0.658 -1.017,-1.2 -0.203,-0.266 -0.428,-0.56 -0.672,-0.88 -0.226,-0.334 -0.453,-0.71 -0.703,-1.1 -0.476,-0.798 -0.945,-1.733 -1.385,-2.778 -0.232,-0.517 -0.39,-1.091 -0.6,-1.661 -0.16,-0.591 -0.353,-1.19 -0.492,-1.824 -0.287,-1.266 -0.48,-2.622 -0.607,-4.035 -0.224,-2.828 -0.135,-5.882 0.188,-8.925 0.132,-1.524 0.337,-3.048 0.545,-4.547 0.224,-1.502 0.445,-2.98 0.659,-4.411 0.444,-2.865 0.848,-5.557 1.073,-7.887 0.248,-2.328 0.24,-4.296 0.168,-5.659 -0.043,-0.684 -0.115,-1.216 -0.184,-1.576 -0.059,-0.359 -0.092,-0.551 -0.092,-0.551 0,0 0,0.195 0.001,0.559 0.017,0.363 -0.026,0.895 -0.053,1.567 -0.075,1.348 -0.369,3.251 -0.801,5.522 -0.461,2.273 -1.002,4.926 -1.58,7.768 -0.573,2.853 -1.096,5.93 -1.418,9.051 m 138.58,-75.467 c 0.268,0.245 0.615,0.651 1.07,1.146 0.903,1.006 2.037,2.56 3.339,4.47 1.28,1.935 2.775,4.192 4.375,6.61 1.612,2.424 3.419,4.969 5.399,7.403 1.002,1.205 2.044,2.384 3.139,3.486 1.074,1.12 2.247,2.115 3.408,3.041 1.168,0.92 2.386,1.7 3.585,2.355 0.599,0.328 1.206,0.606 1.789,0.874 0.608,0.219 1.173,0.475 1.748,0.638 1.134,0.367 2.208,0.576 3.163,0.694 0.479,0.045 0.923,0.099 1.337,0.127 0.416,0.004 0.797,0.008 1.142,0.012 0.688,0.031 1.211,-0.091 1.576,-0.106 0.363,-0.036 0.557,-0.055 0.557,-0.055 0,0 -0.195,-0.013 -0.559,-0.037 -0.359,-0.037 -0.903,-0.027 -1.568,-0.129 -0.33,-0.044 -0.697,-0.094 -1.098,-0.147 -0.394,-0.076 -0.821,-0.182 -1.273,-0.281 -0.902,-0.228 -1.895,-0.556 -2.944,-0.985 -0.53,-0.201 -1.047,-0.495 -1.599,-0.75 -0.529,-0.305 -1.092,-0.592 -1.638,-0.942 -1.097,-0.692 -2.193,-1.514 -3.283,-2.423 -2.156,-1.843 -4.254,-4.065 -6.177,-6.445 -0.984,-1.171 -1.917,-2.394 -2.831,-3.6 -0.902,-1.221 -1.793,-2.422 -2.652,-3.585 -1.711,-2.34 -3.329,-4.53 -4.819,-6.337 -1.469,-1.821 -2.868,-3.207 -3.881,-4.12 -0.516,-0.452 -0.943,-0.778 -1.245,-0.984 -0.296,-0.211 -0.456,-0.324 -0.456,-0.324 0,0 0.138,0.137 0.396,0.394 m 6.338,-269.233 c 1.006,-0.902 2.559,-2.037 4.47,-3.339 1.934,-1.28 4.192,-2.774 6.61,-4.375 2.425,-1.612 4.969,-3.419 7.402,-5.398 1.204,-1.003 2.384,-2.045 3.487,-3.14 1.12,-1.074 2.115,-2.247 3.041,-3.408 0.919,-1.168 1.7,-2.386 2.354,-3.585 0.328,-0.599 0.606,-1.206 0.873,-1.789 0.222,-0.607 0.477,-1.173 0.64,-1.747 0.366,-1.135 0.575,-2.209 0.693,-3.162 0.045,-0.481 0.1,-0.925 0.126,-1.338 0.005,-0.416 0.011,-0.798 0.014,-1.143 0.03,-0.686 -0.092,-1.211 -0.107,-1.576 -0.036,-0.362 -0.054,-0.556 -0.054,-0.556 0,0 -0.014,0.195 -0.037,0.558 -0.038,0.36 -0.028,0.903 -0.129,1.568 -0.044,0.331 -0.094,0.698 -0.148,1.097 -0.076,0.396 -0.181,0.822 -0.28,1.275 -0.229,0.901 -0.557,1.894 -0.986,2.944 -0.202,0.529 -0.496,1.047 -0.75,1.599 -0.304,0.53 -0.591,1.091 -0.943,1.637 -0.69,1.098 -1.513,2.194 -2.422,3.283 -1.842,2.157 -4.064,4.254 -6.445,6.177 -1.171,0.985 -2.394,1.917 -3.601,2.83 -1.219,0.904 -2.421,1.794 -3.584,2.654 -2.338,1.711 -4.531,3.329 -6.336,4.818 -1.822,1.47 -3.207,2.868 -4.122,3.883 -0.452,0.514 -0.777,0.941 -0.983,1.244 -0.212,0.296 -0.323,0.455 -0.323,0.455 0,0 0.137,-0.138 0.393,-0.396 0.245,-0.267 0.653,-0.615 1.147,-1.07 m -326.161,128.21 c -0.364,0.015 -0.896,-0.026 -1.569,-0.054 -1.347,-0.074 -3.25,-0.37 -5.521,-0.8 -2.274,-0.463 -4.926,-1.002 -7.768,-1.58 -2.854,-0.574 -5.93,-1.095 -9.05,-1.418 -1.563,-0.142 -3.132,-0.239 -4.686,-0.244 -1.552,-0.032 -3.086,0.093 -4.56,0.26 -1.477,0.175 -2.89,0.484 -4.201,0.87 -0.656,0.19 -1.281,0.424 -1.883,0.646 -0.584,0.274 -1.165,0.494 -1.687,0.785 -1.061,0.543 -1.968,1.154 -2.727,1.745 -0.371,0.307 -0.722,0.584 -1.034,0.857 -0.298,0.29 -0.571,0.557 -0.818,0.798 -0.507,0.464 -0.791,0.922 -1.039,1.191 -0.231,0.281 -0.354,0.431 -0.354,0.431 0,0 0.147,-0.128 0.421,-0.369 0.28,-0.228 0.657,-0.619 1.199,-1.017 0.266,-0.203 0.56,-0.427 0.881,-0.671 0.333,-0.227 0.71,-0.454 1.099,-0.704 0.799,-0.475 1.733,-0.946 2.78,-1.384 0.515,-0.233 1.089,-0.391 1.66,-0.601 0.591,-0.159 1.191,-0.353 1.824,-0.491 1.266,-0.288 2.621,-0.482 4.035,-0.609 2.827,-0.222 5.881,-0.133 8.924,0.19 1.524,0.131 3.048,0.337 4.547,0.544 1.502,0.224 2.981,0.444 4.411,0.658 2.866,0.444 5.559,0.85 7.889,1.074 2.326,0.248 4.295,0.24 5.658,0.168 0.683,-0.044 1.217,-0.115 1.576,-0.184 0.359,-0.06 0.55,-0.092 0.55,-0.092 0,0 -0.193,0 -0.557,10e-4 m 50.816,136.446 c -1.007,0.901 -2.561,2.037 -4.472,3.339 -1.934,1.28 -4.191,2.774 -6.609,4.375 -2.424,1.611 -4.969,3.418 -7.403,5.397 -1.204,1.003 -2.384,2.045 -3.486,3.14 -1.12,1.074 -2.114,2.248 -3.04,3.408 -0.921,1.168 -1.7,2.386 -2.356,3.586 -0.328,0.598 -0.606,1.206 -0.874,1.788 -0.218,0.607 -0.475,1.173 -0.637,1.747 -0.368,1.135 -0.578,2.209 -0.695,3.163 -0.045,0.479 -0.099,0.924 -0.127,1.338 -0.003,0.415 -0.008,0.797 -0.011,1.142 -0.032,0.686 0.09,1.211 0.106,1.576 0.035,0.362 0.054,0.556 0.054,0.556 0,0 0.013,-0.194 0.036,-0.558 0.037,-0.36 0.028,-0.904 0.13,-1.568 0.044,-0.331 0.094,-0.698 0.147,-1.097 0.076,-0.396 0.181,-0.822 0.281,-1.275 0.228,-0.901 0.557,-1.894 0.985,-2.943 0.203,-0.53 0.496,-1.048 0.75,-1.6 0.306,-0.53 0.592,-1.091 0.942,-1.637 0.692,-1.098 1.514,-2.194 2.424,-3.283 1.841,-2.157 4.065,-4.254 6.444,-6.177 1.171,-0.985 2.394,-1.916 3.602,-2.83 1.219,-0.904 2.42,-1.793 3.584,-2.654 2.339,-1.711 4.529,-3.329 6.335,-4.818 1.822,-1.47 3.208,-2.868 4.122,-3.882 0.452,-0.515 0.777,-0.941 0.983,-1.245 0.211,-0.296 0.325,-0.454 0.325,-0.454 0,0 -0.138,0.138 -0.394,0.395 -0.246,0.268 -0.652,0.615 -1.146,1.071 M -11.733,8.614 c -17.249,2.806 -22.238,-5.39 -40.077,-1.742 0.028,0.983 -0.574,1.907 -1.552,2.234 -1.2,0.401 -2.496,-0.248 -2.898,-1.447 -0.161,-0.483 -0.298,-1.219 -0.409,-2.109 h -7.661 c -0.118,-0.063 -0.246,-0.108 -0.39,-0.108 h -13.385 c -0.144,0 -0.272,0.045 -0.388,0.108 -0.27,0.14 -0.458,0.415 -0.458,0.739 0,0.467 0.379,0.846 0.846,0.846 h 11.765 v 2.076 h -12.654 c 0.101,0.762 0.215,1.355 0.334,1.714 0.676,2.026 -0.42,4.218 -2.446,4.893 -2.027,0.672 -4.217,-0.419 -4.895,-2.446 -0.099,-0.297 -0.191,-0.652 -0.279,-1.052 -2.611,32.483 -15.661,62.064 -35.793,85.371 0.788,-0.58 1.518,-1.071 2.166,-1.436 0.6,-0.34 1.255,-0.502 1.898,-0.502 1.351,0 2.66,0.708 3.372,1.966 1.051,1.86 0.397,4.22 -1.465,5.271 -0.345,0.197 -0.732,0.45 -1.133,0.731 l 8.874,8.874 -3.365,3.363 6.796,6.797 c 0.778,-0.621 1.491,-1.133 2.083,-1.468 0.357,-0.202 0.743,-0.297 1.124,-0.297 0.799,0 1.575,0.419 1.995,1.163 0.46,0.814 0.367,1.788 -0.159,2.493 7.006,13.549 18.318,13.678 28.494,28.073 10.986,15.536 2.165,22.776 -12.257,12.388 -14.18,-10.213 -11.911,-19.536 -27.107,-29.57 -0.675,0.714 -1.756,0.944 -2.679,0.482 -1.13,-0.565 -1.588,-1.941 -1.024,-3.072 0.229,-0.455 0.65,-1.072 1.203,-1.78 l -5.419,-5.419 c -0.039,-0.127 -0.097,-0.248 -0.199,-0.349 l -9.467,-9.465 c -0.099,-0.101 -0.22,-0.161 -0.347,-0.2 -0.082,-0.026 -0.165,-0.048 -0.25,-0.048 -0.216,0 -0.432,0.082 -0.597,0.248 -0.33,0.33 -0.33,0.865 0,1.195 l 8.32,8.32 -1.469,1.468 -8.947,-8.947 c -0.465,0.609 -0.808,1.111 -0.976,1.447 -0.956,1.912 -3.281,2.687 -5.191,1.73 -1.911,-0.955 -2.684,-3.278 -1.729,-5.189 0.329,-0.658 0.891,-1.509 1.63,-2.489 -22.787,19.578 -51.526,32.405 -83.092,35.363 1.733,0.76 2.698,2.685 2.176,4.562 -0.572,2.058 -2.705,3.262 -4.762,2.691 -0.387,-0.107 -0.833,-0.202 -1.321,-0.289 v 12.553 h -4.755 v 9.609 c 0.99,0.11 1.853,0.254 2.509,0.437 1.219,0.338 1.932,1.6 1.594,2.818 -0.251,0.901 -1.006,1.52 -1.875,1.648 -4.628,14.536 3.279,22.625 0.297,40.002 -3.218,18.753 -14.574,17.636 -17.428,0.092 -2.804,-17.25 5.393,-22.237 1.743,-40.077 -0.981,0.027 -1.909,-0.574 -2.235,-1.553 -0.4,-1.2 0.248,-2.496 1.447,-2.896 0.483,-0.161 1.223,-0.296 2.11,-0.407 v -7.664 c 0.062,-0.118 0.106,-0.246 0.106,-0.388 v -13.387 c 0,-0.143 -0.044,-0.271 -0.106,-0.388 -0.141,-0.269 -0.414,-0.458 -0.739,-0.458 -0.466,0 -0.845,0.379 -0.845,0.846 v 11.766 h -2.076 v -12.655 c -0.764,0.102 -1.358,0.215 -1.715,0.334 -2.03,0.677 -4.219,-0.42 -4.894,-2.446 -0.649,-1.948 0.347,-4.032 2.222,-4.793 -31.991,-3.102 -61.057,-16.349 -83.935,-36.474 l -0.269,0.269 c 0.81,1.05 1.481,2.018 1.949,2.846 1.051,1.86 0.396,4.22 -1.464,5.271 -1.86,1.05 -4.221,0.396 -5.27,-1.465 -0.197,-0.347 -0.451,-0.733 -0.732,-1.135 l -8.873,8.874 -3.364,-3.363 -6.797,6.796 c 0.623,0.776 1.134,1.489 1.469,2.082 0.622,1.101 0.235,2.498 -0.867,3.12 -0.812,0.459 -1.788,0.365 -2.492,-0.159 -13.549,7.006 -13.678,18.316 -28.073,28.494 -15.537,10.985 -22.777,2.165 -12.39,-12.258 10.214,-14.182 19.538,-11.911 29.571,-27.106 -0.714,-0.676 -0.944,-1.755 -0.482,-2.679 0.403,-0.803 1.21,-1.267 2.051,-1.267 0.343,0 0.693,0.078 1.022,0.242 0.456,0.228 1.07,0.651 1.779,1.203 l 5.418,-5.418 c 0.127,-0.039 0.249,-0.099 0.349,-0.2 l 9.466,-9.466 c 0.101,-0.1 0.161,-0.222 0.2,-0.348 0.09,-0.291 0.03,-0.618 -0.2,-0.847 -0.165,-0.166 -0.381,-0.248 -0.596,-0.248 -0.218,0 -0.433,0.082 -0.599,0.248 l -8.319,8.32 -1.469,-1.468 8.948,-8.947 c -0.61,-0.465 -1.112,-0.81 -1.449,-0.978 -1.91,-0.956 -2.685,-3.279 -1.73,-5.19 0.679,-1.355 2.044,-2.139 3.463,-2.139 0.582,0 1.172,0.131 1.727,0.409 0.87,0.435 2.082,1.286 3.481,2.404 l 0.262,-0.262 c -20.774,-23.943 -34.057,-54.547 -36.188,-88.132 -0.169,1.305 -0.378,2.454 -0.632,3.366 -0.572,2.059 -2.701,3.259 -4.763,2.692 -2.059,-0.572 -3.264,-2.705 -2.69,-4.763 0.106,-0.385 0.201,-0.833 0.289,-1.319 h -12.553 V 5.038 h -9.611 c -0.11,0.986 -0.252,1.854 -0.435,2.51 -0.339,1.218 -1.602,1.928 -2.818,1.593 -0.902,-0.25 -1.523,-1.006 -1.651,-1.874 -14.534,-4.627 -22.624,3.277 -40,0.295 -18.753,-3.217 -17.636,-14.573 -0.092,-17.426 17.25,-2.807 22.237,5.392 40.078,1.742 -0.029,-0.983 0.572,-1.909 1.552,-2.235 0.242,-0.081 0.485,-0.119 0.726,-0.119 0.957,0 1.851,0.607 2.17,1.566 0.162,0.483 0.298,1.218 0.41,2.11 h 7.661 c 0.117,0.063 0.245,0.107 0.388,0.107 h 13.388 c 0.143,0 0.271,-0.044 0.388,-0.107 0.268,-0.141 0.457,-0.415 0.457,-0.739 0,-0.467 -0.379,-0.846 -0.845,-0.846 h -11.766 v -2.077 h 12.653 c -0.1,-0.763 -0.214,-1.356 -0.333,-1.715 -0.676,-2.026 0.42,-4.217 2.448,-4.892 0.404,-0.135 0.817,-0.2 1.222,-0.2 1.62,0 3.13,1.026 3.671,2.647 0.306,0.922 0.563,2.38 0.76,4.16 h 10e-4 c 2.382,-33.351 15.767,-63.703 36.542,-87.438 l -0.448,-0.45 c -1.052,0.81 -2.019,1.481 -2.848,1.95 -1.86,1.051 -4.22,0.396 -5.271,-1.465 -1.05,-1.861 -0.395,-4.22 1.465,-5.272 0.347,-0.196 0.733,-0.45 1.135,-0.731 l -8.874,-8.874 3.363,-3.363 -6.796,-6.796 c -0.776,0.621 -1.489,1.132 -2.083,1.467 -1.101,0.623 -2.496,0.235 -3.119,-0.867 -0.459,-0.813 -0.365,-1.787 0.159,-2.491 -7.006,-13.549 -18.316,-13.679 -28.493,-28.073 -10.986,-15.536 -2.166,-22.778 12.258,-12.389 14.179,10.212 11.911,19.533 27.099,29.566 0.435,-0.461 1.04,-0.719 1.664,-0.719 0.343,0 0.694,0.078 1.022,0.242 1.132,0.565 1.59,1.94 1.025,3.071 -0.228,0.456 -0.652,1.073 -1.204,1.781 l 5.419,5.419 c 0.04,0.127 0.1,0.248 0.2,0.348 l 9.465,9.466 c 0.101,0.1 0.221,0.159 0.348,0.198 0.289,0.091 0.617,0.032 0.847,-0.198 0.331,-0.33 0.331,-0.865 0,-1.195 l -8.32,-8.321 1.468,-1.468 8.948,8.947 c 0.464,-0.609 0.81,-1.111 0.977,-1.447 0.678,-1.356 2.044,-2.139 3.463,-2.139 0.581,0 1.172,0.132 1.727,0.409 1.912,0.955 2.686,3.279 1.73,5.189 -0.435,0.871 -1.286,2.083 -2.403,3.482 l 0.41,0.411 c 23.711,-20.678 53.994,-33.995 87.259,-36.366 v -0.669 c -1.317,-0.17 -2.474,-0.38 -3.392,-0.635 -2.059,-0.572 -3.264,-2.705 -2.69,-4.764 0.571,-2.058 2.702,-3.26 4.762,-2.691 0.387,0.107 0.832,0.203 1.32,0.289 v -12.553 h 4.755 v -9.611 c -0.988,-0.109 -1.854,-0.252 -2.51,-0.434 -1.219,-0.34 -1.932,-1.602 -1.592,-2.82 0.25,-0.9 1.006,-1.519 1.873,-1.648 4.627,-14.535 -3.277,-22.623 -0.297,-39.999 3.219,-18.754 14.574,-17.637 17.429,-0.093 2.805,17.247 -5.391,22.235 -1.744,40.068 0.021,0 0.044,-0.005 0.064,-0.005 0.958,0 1.853,0.607 2.172,1.566 0.399,1.199 -0.249,2.496 -1.447,2.896 -0.484,0.161 -1.219,0.298 -2.111,0.41 v 7.664 c -0.061,0.117 -0.105,0.245 -0.105,0.386 v 13.387 c 0,0.142 0.044,0.27 0.105,0.387 0.142,0.269 0.415,0.459 0.741,0.459 0.466,0 0.845,-0.379 0.845,-0.846 v -11.767 h 2.076 v 12.656 c 0.762,-0.103 1.355,-0.215 1.714,-0.334 0.407,-0.135 0.819,-0.199 1.224,-0.199 1.62,0 3.13,1.024 3.67,2.645 0.676,2.026 -0.42,4.218 -2.446,4.894 -0.923,0.307 -2.381,0.563 -4.162,0.761 v 0.526 c 33.37,2.117 63.793,15.243 87.668,35.788 l 0.22,-0.22 c -0.809,-1.051 -1.479,-2.019 -1.948,-2.847 -1.052,-1.86 -0.397,-4.219 1.465,-5.271 0.6,-0.34 1.255,-0.501 1.898,-0.501 1.351,0 2.66,0.707 3.372,1.966 0.198,0.346 0.451,0.732 0.732,1.135 l 8.874,-8.874 3.362,3.364 6.796,-6.796 c -0.619,-0.776 -1.133,-1.49 -1.468,-2.083 -0.622,-1.101 -0.233,-2.497 0.867,-3.119 0.357,-0.201 0.743,-0.297 1.124,-0.297 0.49,0 0.956,0.173 1.352,0.464 13.564,-7.005 13.688,-18.32 28.09,-28.502 15.536,-10.986 22.776,-2.165 12.388,12.257 -10.211,14.181 -19.536,11.911 -29.569,27.106 0.712,0.675 0.943,1.754 0.482,2.679 -0.566,1.131 -1.937,1.588 -3.073,1.024 -0.455,-0.227 -1.071,-0.65 -1.78,-1.202 l -5.419,5.419 c -0.127,0.039 -0.249,0.099 -0.349,0.199 l -9.464,9.466 c -0.101,0.1 -0.161,0.221 -0.201,0.348 -0.088,0.29 -0.03,0.617 0.201,0.847 0.33,0.33 0.865,0.33 1.194,0 l 8.32,-8.32 1.468,1.468 -8.947,8.948 c 0.608,0.464 1.11,0.81 1.447,0.978 1.91,0.955 2.686,3.279 1.73,5.19 -0.956,1.91 -3.281,2.685 -5.19,1.729 -0.87,-0.434 -2.082,-1.286 -3.48,-2.404 l -0.068,0.067 c 20.62,23.247 34.106,52.952 36.997,85.658 0.102,-0.529 0.209,-1.017 0.329,-1.448 0.477,-1.711 2.033,-2.833 3.726,-2.833 0.344,0 0.691,0.046 1.038,0.142 2.06,0.572 3.264,2.705 2.692,4.764 -0.108,0.385 -0.203,0.833 -0.29,1.319 h 12.553 v 4.756 h 9.612 c 0.11,-0.987 0.251,-1.855 0.434,-2.511 0.282,-1.014 1.202,-1.677 2.205,-1.677 0.203,0 0.409,0.028 0.614,0.084 0.903,0.251 1.524,1.007 1.652,1.876 14.533,4.626 22.622,-3.279 39.997,-0.297 C 6.928,-5.596 5.81,5.761 -11.733,8.614 M -235.315,6.222 c 3.29,0 5.957,-2.666 5.957,-5.955 0,-3.291 -2.667,-5.958 -5.957,-5.958 -3.29,0 -5.957,2.667 -5.957,5.958 0,3.289 2.667,5.955 5.957,5.955 m -0.478,-23.179 c 9.512,0 17.223,7.71 17.223,17.222 0,9.512 -7.711,17.222 -17.223,17.222 -9.512,0 -17.223,-7.71 -17.223,-17.222 0,-9.512 7.711,-17.222 17.223,-17.222 m 0.77,-101.11 c -65.25,0 -118.332,53.084 -118.332,118.332 0,65.249 53.082,118.333 118.332,118.333 65.249,0 118.333,-53.084 118.333,-118.333 0,-65.248 -53.084,-118.332 -118.333,-118.332 M -104.217,3.304 c 2.33,0 4.221,-1.89 4.221,-4.221 0,-2.33 -1.891,-4.219 -4.221,-4.219 -2.33,0 -4.219,1.889 -4.219,4.219 0,2.331 1.889,4.221 4.219,4.221 m -35.621,-99.82 c -1.646,-1.647 -4.318,-1.647 -5.966,0 -1.647,1.649 -1.647,4.32 0,5.967 1.648,1.648 4.32,1.648 5.966,0 1.649,-1.647 1.649,-4.318 0,-5.967 m -95.768,-39.427 c -2.331,0 -4.22,1.889 -4.22,4.219 0,2.33 1.889,4.219 4.22,4.219 2.33,0 4.218,-1.889 4.218,-4.219 0,-2.33 -1.888,-4.219 -4.218,-4.219 m -89.633,39.84 c -1.647,-1.648 -4.319,-1.648 -5.967,0 -1.647,1.648 -1.647,4.319 0,5.966 1.648,1.648 4.32,1.648 5.967,0 1.648,-1.647 1.648,-4.318 0,-5.966 m -41.175,91.549 c -2.33,0 -4.219,1.89 -4.219,4.22 0,2.33 1.889,4.219 4.219,4.219 2.331,0 4.221,-1.889 4.221,-4.219 0,-2.33 -1.89,-4.22 -4.221,-4.22 m 34.92,100.569 c 1.648,1.647 4.32,1.647 5.968,0 1.648,-1.648 1.648,-4.32 0,-5.967 -1.648,-1.648 -4.32,-1.648 -5.968,0 -1.648,1.647 -1.648,4.319 0,5.967 m 96.471,38.677 c 2.33,0 4.218,-1.889 4.218,-4.219 0,-2.33 -1.888,-4.22 -4.218,-4.22 -2.331,0 -4.219,1.89 -4.219,4.22 0,2.33 1.888,4.219 4.219,4.219 m 89.734,-38.735 c 1.646,1.647 4.318,1.647 5.967,0 1.647,-1.648 1.647,-4.319 0,-5.967 -1.649,-1.648 -4.321,-1.648 -5.967,0 -1.648,1.648 -1.648,4.319 0,5.967 m -89.734,46.605 c -78.463,0 -142.298,-63.834 -142.298,-142.297 0,-78.463 63.835,-142.297 142.298,-142.297 78.462,0 142.296,63.834 142.296,142.297 0,78.463 -63.834,142.297 -142.296,142.297 m 108.07,-131.387 c -0.328,-0.985 -0.588,-2.689 -0.766,-4.758 h -14.486 c 0.116,1.257 0.261,2.218 0.42,2.694 0.428,1.283 0.013,2.642 -0.942,3.482 -0.382,0.506 -0.917,0.906 -1.564,1.122 -0.708,0.235 -1.433,0.205 -2.085,-0.02 -2.232,14.801 -8.098,28.425 -16.652,39.937 0.902,0.177 1.728,0.713 2.217,1.576 0.885,1.568 0.333,3.558 -1.235,4.444 -0.574,0.325 -1.259,0.812 -1.998,1.393 l 10.242,10.243 c 1.277,-1.049 2.452,-1.913 3.408,-2.453 0.507,-0.286 1.058,-0.422 1.602,-0.422 0.459,0 0.903,0.121 1.32,0.307 12.269,-15.655 20.428,-34.671 22.865,-55.412 -1.064,-0.253 -1.976,-1.023 -2.346,-2.133 m -26.369,-12.092 c 0,0.988 0.8,1.789 1.789,1.789 0.986,0 1.788,-0.801 1.788,-1.789 0,-0.987 -0.802,-1.788 -1.788,-1.788 -0.989,0 -1.789,0.801 -1.789,1.788 m 5.429,-67.804 c -0.783,0.252 -1.662,0.213 -2.456,-0.183 -0.926,-0.464 -2.315,-1.49 -3.904,-2.826 l -10.242,10.244 c 0.966,0.8 1.754,1.387 2.2,1.611 1.208,0.604 1.877,1.857 1.796,3.126 0.087,0.629 -0.008,1.289 -0.313,1.9 -0.461,0.922 -1.303,1.516 -2.24,1.716 8.37,11.252 14.164,24.527 16.511,38.944 0.496,-0.295 1.065,-0.466 1.659,-0.466 0.289,0 0.583,0.039 0.874,0.12 1.736,0.481 2.752,2.279 2.271,4.014 -0.179,0.639 -0.321,1.46 -0.433,2.399 h 14.488 c 0.162,-1.648 0.385,-3.086 0.68,-4.146 0.31,-1.108 1.156,-1.918 2.18,-2.236 -2.707,-20.305 -10.912,-38.893 -23.071,-54.217 m -74.037,-41.424 c -0.384,0.523 -0.924,0.938 -1.586,1.159 -0.983,0.328 -2.686,0.586 -4.757,0.764 v 14.488 c 1.256,-0.118 2.217,-0.262 2.695,-0.421 0.342,-0.115 0.689,-0.168 1.031,-0.168 0.931,0 1.811,0.408 2.424,1.095 0.518,0.384 0.929,0.921 1.147,1.579 0.392,1.175 0.067,2.406 -0.724,3.252 14.597,2.183 28.053,7.902 39.472,16.251 -0.012,-1.152 0.57,-2.275 1.641,-2.88 0.507,-0.287 1.059,-0.423 1.603,-0.423 1.136,0 2.242,0.596 2.84,1.657 0.327,0.575 0.814,1.259 1.394,1.999 l 10.244,-10.244 c -1.049,-1.276 -1.912,-2.452 -2.452,-3.408 -0.426,-0.755 -0.512,-1.606 -0.318,-2.386 -15.506,-11.952 -34.242,-19.907 -54.654,-22.314 m -81.665,24.553 c -0.463,0.928 -1.488,2.316 -2.824,3.904 l 10.243,10.244 c 0.801,-0.967 1.387,-1.754 1.611,-2.202 0.571,-1.143 1.722,-1.803 2.919,-1.803 0.05,0 0.102,0.014 0.151,0.017 0.165,-0.025 0.332,-0.042 0.5,-0.042 0.491,0 0.989,0.112 1.456,0.346 1.146,0.572 1.794,1.73 1.79,2.929 11.487,-8.381 25.032,-14.1 39.725,-16.243 -0.009,-0.01 -0.019,-0.017 -0.028,-0.027 -1.032,-0.784 -1.541,-2.14 -1.174,-3.466 0.484,-1.735 2.284,-2.753 4.017,-2.268 0.639,0.178 1.461,0.319 2.397,0.432 v -14.488 c -1.645,-0.161 -3.085,-0.386 -4.145,-0.679 -0.701,-0.195 -1.275,-0.611 -1.691,-1.145 -20.428,2.507 -39.158,10.574 -54.627,22.64 0.074,0.614 -0.021,1.257 -0.32,1.851 m -40.081,73.167 c 0.328,0.985 0.588,2.688 0.765,4.757 h 14.487 c -0.118,-1.257 -0.261,-2.218 -0.421,-2.694 -0.426,-1.283 -0.012,-2.643 0.943,-3.483 0.383,-0.506 0.917,-0.905 1.564,-1.121 0.341,-0.114 0.69,-0.168 1.03,-0.168 0.672,0 1.32,0.211 1.86,0.586 2.427,-14.529 8.356,-27.887 16.893,-39.171 -1.246,0.123 -2.505,-0.476 -3.161,-1.636 -0.887,-1.567 -0.334,-3.557 1.235,-4.443 0.575,-0.325 1.258,-0.812 1.999,-1.393 l -10.245,-10.244 c -1.275,1.049 -2.453,1.913 -3.408,2.453 -0.666,0.377 -1.404,0.479 -2.106,0.369 -12.155,15.359 -20.345,33.99 -23.015,54.336 0.72,0.378 1.303,1.019 1.58,1.852 m 26.368,12.091 c 0,-0.988 -0.799,-1.789 -1.788,-1.789 -0.987,0 -1.788,0.801 -1.788,1.789 0,0.987 0.801,1.788 1.788,1.788 0.989,0 1.788,-0.801 1.788,-1.788 m -5.728,68.455 c 0.198,-0.037 0.396,-0.062 0.599,-0.062 0.489,0 0.987,0.11 1.456,0.345 0.926,0.464 2.314,1.488 3.902,2.824 l 10.244,-10.243 c -0.967,-0.8 -1.753,-1.386 -2.202,-1.61 -1.209,-0.604 -1.877,-1.859 -1.796,-3.128 -0.086,-0.628 0.008,-1.288 0.313,-1.898 0.539,-1.078 1.595,-1.72 2.718,-1.79 -8.309,-11.532 -13.947,-25.108 -16.004,-39.817 -0.78,0.583 -1.807,0.822 -2.819,0.542 -1.734,-0.482 -2.75,-2.28 -2.268,-4.014 0.179,-0.639 0.32,-1.46 0.433,-2.399 h -14.488 c -0.16,1.647 -0.385,3.085 -0.679,4.145 -0.272,0.979 -0.971,1.716 -1.833,2.097 2.375,20.555 10.377,39.418 22.424,55.008 m 73.708,42.41 c 0.117,-1.249 0.947,-2.373 2.213,-2.796 0.986,-0.328 2.687,-0.587 4.758,-0.765 V 92.484 c -1.256,0.117 -2.219,0.262 -2.695,0.42 -1.282,0.426 -2.643,0.012 -3.483,-0.944 -0.504,-0.383 -0.904,-0.915 -1.119,-1.562 -0.19,-0.567 -0.201,-1.147 -0.086,-1.693 -14.609,-2.423 -28.033,-8.387 -39.362,-16.981 -0.014,1.123 -0.595,2.209 -1.643,2.801 -1.567,0.886 -3.557,0.334 -4.442,-1.234 -0.327,-0.576 -0.813,-1.259 -1.395,-1.999 l -10.243,10.244 c 1.05,1.276 1.912,2.453 2.452,3.409 0.433,0.763 0.517,1.624 0.315,2.411 15.45,12.272 34.222,20.529 54.73,23.175 m 82.316,-22.374 c -0.352,-0.845 -0.363,-1.828 0.078,-2.712 0.464,-0.927 1.49,-2.316 2.826,-3.904 l -10.245,-10.243 c -0.799,0.967 -1.385,1.754 -1.611,2.202 -0.602,1.208 -1.855,1.877 -3.125,1.796 -0.629,0.086 -1.289,-0.008 -1.9,-0.314 -0.843,-0.421 -1.413,-1.16 -1.66,-1.997 -11.257,8.13 -24.465,13.718 -38.779,15.905 0.168,0.567 0.194,1.182 0.024,1.794 -0.484,1.735 -2.281,2.75 -4.016,2.269 -0.639,-0.178 -1.461,-0.32 -2.397,-0.432 v 14.49 c 1.642,0.162 3.087,0.383 4.143,0.677 1.366,0.379 2.274,1.576 2.367,2.915 20.287,-2.508 38.896,-10.501 54.295,-22.446 m 5.165,-76.505 c -0.351,-1.059 -0.626,-2.949 -0.803,-5.235 h -13.036 c 0.08,0.643 0.166,1.152 0.26,1.438 0.468,1.402 -0.29,2.919 -1.693,3.388 -1.404,0.467 -2.922,-0.29 -3.391,-1.694 -0.225,-0.68 -0.411,-1.79 -0.551,-3.132 h -2.042 l -14.831,-10e-4 c -0.018,0.121 -0.043,0.24 -0.064,0.36 0.111,1.08 0.242,1.906 0.387,2.335 0.568,1.709 -0.356,3.556 -2.064,4.125 -0.008,0.003 -0.015,0.003 -0.021,0.005 -0.264,0.728 -0.546,1.444 -0.852,2.15 0.087,0.115 0.19,0.213 0.262,0.342 0.886,1.568 0.334,3.558 -1.235,4.444 -0.6,0.34 -1.321,0.856 -2.099,1.473 l 10.537,10.538 1.56,1.559 c 0.53,-0.388 1.025,-0.724 1.461,-0.97 0.417,-0.235 0.87,-0.347 1.316,-0.347 0.935,0 1.843,0.49 2.336,1.362 0.726,1.288 0.272,2.923 -1.016,3.651 -0.076,0.044 -0.165,0.105 -0.246,0.155 l 9.13,9.13 c 1.175,-0.95 2.25,-1.725 3.141,-2.227 0.506,-0.286 1.055,-0.422 1.599,-0.422 0.301,0 0.597,0.046 0.884,0.127 6.366,-8.971 10.835,-19.37 12.829,-30.619 -0.801,-0.361 -1.458,-1.035 -1.758,-1.935 m -11,-55.227 c -0.61,0.071 -1.247,-0.025 -1.838,-0.32 -0.997,-0.499 -2.529,-1.65 -4.265,-3.135 l -9.222,9.22 c 0.511,0.399 0.934,0.699 1.2,0.832 1.324,0.662 1.862,2.271 1.199,3.595 -0.661,1.322 -2.27,1.861 -3.594,1.198 -0.642,-0.32 -1.557,-0.975 -2.605,-1.824 l -11.998,11.998 c 0.966,0.801 1.752,1.386 2.2,1.61 1.611,0.804 2.263,2.763 1.459,4.375 -0.125,0.25 -0.286,0.467 -0.46,0.67 0.107,0.24 0.221,0.476 0.325,0.718 0.204,0.017 0.409,0.046 0.612,0.103 1.735,0.481 2.752,2.279 2.27,4.014 -0.186,0.668 -0.333,1.535 -0.448,2.527 h 14.909 2.206 c 0.1,-0.65 0.214,-1.238 0.348,-1.721 0.329,-1.184 1.406,-1.962 2.579,-1.962 0.24,0 0.482,0.032 0.721,0.1 1.427,0.396 2.261,1.874 1.862,3.3 -0.022,0.085 -0.043,0.191 -0.063,0.283 h 12.911 c 0.157,-1.502 0.371,-2.812 0.644,-3.796 0.256,-0.918 0.881,-1.632 1.669,-2.031 -2.049,-10.915 -6.435,-21.01 -12.621,-29.754 m -4.697,-15.234 c 0.698,0.699 1.831,0.699 2.528,0 0.701,-0.699 0.701,-1.831 0,-2.529 -0.697,-0.698 -1.83,-0.698 -2.528,0 -0.697,0.698 -0.697,1.83 0,2.529 m -44.403,-15.906 c -0.313,0.268 -0.678,0.484 -1.092,0.621 -1.059,0.353 -2.948,0.626 -5.234,0.805 v 13.034 c 0.642,-0.078 1.153,-0.165 1.436,-0.26 0.282,-0.093 0.567,-0.138 0.85,-0.138 1.121,0 2.167,0.71 2.541,1.833 0.468,1.403 -0.29,2.921 -1.695,3.389 -0.679,0.227 -1.79,0.41 -3.132,0.552 v 2.042 14.929 c 1.257,-0.117 2.218,-0.262 2.696,-0.42 0.342,-0.114 0.688,-0.168 1.03,-0.168 1.365,0 2.639,0.864 3.094,2.23 0.113,0.34 0.151,0.683 0.152,1.023 0.186,0.076 0.372,0.148 0.556,0.226 0.202,-0.201 0.424,-0.386 0.683,-0.534 0.507,-0.286 1.058,-0.423 1.602,-0.423 1.138,0 2.242,0.597 2.842,1.658 0.34,0.601 0.856,1.321 1.473,2.098 l 10.539,-10.537 1.559,-1.56 c -0.388,-0.53 -0.723,-1.027 -0.97,-1.462 -0.726,-1.288 -0.272,-2.923 1.016,-3.651 0.416,-0.235 0.868,-0.346 1.315,-0.346 0.935,0 1.843,0.49 2.335,1.362 0.043,0.076 0.107,0.165 0.156,0.246 l 9.13,-9.131 c -0.951,-1.174 -1.726,-2.25 -2.228,-3.139 -0.328,-0.584 -0.458,-1.225 -0.41,-1.846 -8.896,-6.18 -19.16,-10.505 -30.244,-12.433 m -56.326,12.383 c -0.043,0.364 -0.137,0.729 -0.31,1.076 -0.5,0.997 -1.65,2.529 -3.137,4.267 l 9.22,9.22 c 0.399,-0.51 0.699,-0.933 0.834,-1.201 0.469,-0.939 1.414,-1.482 2.397,-1.482 0.404,0 0.812,0.092 1.197,0.284 1.324,0.661 1.861,2.272 1.197,3.595 -0.319,0.641 -0.975,1.556 -1.824,2.605 l 12,11.998 c 0.801,-0.966 1.387,-1.753 1.609,-2.2 0.571,-1.143 1.723,-1.804 2.92,-1.804 0.489,0 0.987,0.112 1.455,0.345 0.195,0.098 0.375,0.213 0.54,0.342 0.288,-0.117 0.576,-0.233 0.867,-0.343 0.021,-0.158 0.038,-0.317 0.082,-0.476 0.484,-1.738 2.284,-2.752 4.015,-2.27 0.67,0.186 1.535,0.332 2.527,0.446 v -14.907 -2.206 c -0.648,-0.1 -1.238,-0.214 -1.719,-0.349 -1.427,-0.396 -2.261,-1.874 -1.865,-3.299 0.397,-1.426 1.873,-2.262 3.3,-1.863 0.085,0.024 0.193,0.043 0.284,0.065 V -73.4 c -1.502,-0.159 -2.81,-0.372 -3.795,-0.646 -0.501,-0.14 -0.935,-0.399 -1.297,-0.726 -11.179,1.894 -21.533,6.227 -30.497,12.44 m -17.754,3.936 c 0.697,0.698 1.83,0.698 2.528,0 0.699,-0.699 0.699,-1.832 0,-2.53 -0.698,-0.698 -1.831,-0.698 -2.528,0 -0.7,0.698 -0.7,1.831 0,2.53 m -12.757,45.493 c 0.354,1.059 0.627,2.949 0.805,5.235 h 13.036 c -0.079,-0.643 -0.165,-1.153 -0.261,-1.437 -0.467,-1.404 0.291,-2.921 1.695,-3.389 0.281,-0.094 0.568,-0.139 0.847,-0.139 1.123,0 2.168,0.711 2.542,1.834 0.226,0.68 0.41,1.79 0.552,3.131 h 2.042 14.202 c 0.141,-0.664 0.301,-1.32 0.474,-1.972 -0.053,-0.298 -0.109,-0.546 -0.169,-0.722 -0.534,-1.604 0.256,-3.317 1.769,-3.993 0.266,-0.643 0.545,-1.279 0.844,-1.903 -0.613,-1.497 -0.045,-3.248 1.4,-4.065 0.461,-0.261 0.993,-0.627 1.566,-1.058 0.128,-0.186 0.262,-0.369 0.395,-0.555 l -11.958,-11.958 c -0.531,0.388 -1.028,0.724 -1.464,0.97 -1.289,0.729 -2.923,0.274 -3.651,-1.014 -0.728,-1.29 -0.273,-2.924 1.015,-3.652 0.078,-0.043 0.167,-0.105 0.248,-0.155 l -9.129,-9.13 c -1.175,0.95 -2.251,1.726 -3.141,2.228 -0.508,0.286 -1.059,0.407 -1.603,0.407 -6.338,8.764 -10.86,18.92 -13.004,29.922 0.422,0.369 0.758,0.844 0.948,1.415 m 10.845,55.97 c 0.437,0.022 0.875,0.118 1.291,0.326 0.998,0.499 2.53,1.65 4.269,3.136 l 9.22,-9.22 c -0.51,-0.399 -0.933,-0.699 -1.199,-0.832 -1.325,-0.662 -1.862,-2.271 -1.2,-3.595 0.471,-0.939 1.416,-1.482 2.399,-1.482 0.404,0 0.811,0.091 1.197,0.284 0.64,0.32 1.555,0.975 2.604,1.824 l 11.784,-11.785 c -0.178,-0.263 -0.344,-0.535 -0.518,-0.803 -0.624,-0.489 -1.141,-0.857 -1.469,-1.02 -1.611,-0.805 -2.263,-2.764 -1.459,-4.375 0.007,-0.013 0.018,-0.026 0.024,-0.04 -0.42,-0.966 -0.795,-1.956 -1.137,-2.962 -0.859,-0.798 -1.265,-2.024 -0.937,-3.233 -0.203,-0.839 -0.377,-1.687 -0.525,-2.547 h -13.931 -2.206 c -0.101,0.651 -0.214,1.237 -0.349,1.72 -0.395,1.425 -1.873,2.26 -3.297,1.864 -1.428,-0.396 -2.262,-1.874 -1.866,-3.301 0.024,-0.084 0.043,-0.19 0.065,-0.283 h -12.91 c -0.159,1.502 -0.372,2.811 -0.645,3.795 -0.229,0.822 -0.76,1.475 -1.432,1.891 1.81,11.216 6.071,21.619 12.227,30.638 m 4.152,15.241 c -0.697,-0.699 -1.831,-0.699 -2.528,0 -0.7,0.698 -0.7,1.831 0,2.529 0.697,0.699 1.831,0.699 2.528,0 0.699,-0.698 0.699,-1.831 0,-2.529 m 44.123,16.656 c 0.303,-0.964 1.041,-1.777 2.071,-2.121 1.06,-0.353 2.951,-0.625 5.236,-0.804 V 59.003 c -0.643,0.079 -1.154,0.166 -1.436,0.261 -1.404,0.466 -2.923,-0.291 -3.391,-1.695 -0.467,-1.404 0.29,-2.922 1.694,-3.389 0.68,-0.227 1.791,-0.411 3.133,-0.552 V 51.586 38.051 c -1.244,-0.215 -2.465,-0.489 -3.664,-0.822 -0.706,0.013 -1.385,-0.197 -1.949,-0.597 -1.241,-0.417 -2.456,-0.896 -3.637,-1.433 -1.508,0.639 -3.283,0.075 -4.106,-1.383 -0.229,-0.407 -0.55,-0.873 -0.914,-1.367 -0.261,-0.17 -0.522,-0.337 -0.779,-0.513 l -10.319,10.318 -1.558,1.56 c 0.387,0.529 0.722,1.026 0.969,1.461 0.728,1.289 0.273,2.924 -1.014,3.652 -1.291,0.727 -2.924,0.273 -3.652,-1.015 -0.043,-0.077 -0.104,-0.166 -0.155,-0.247 l -9.13,9.13 c 0.95,1.173 1.725,2.25 2.227,3.14 0.349,0.617 0.467,1.298 0.395,1.953 8.776,6.371 18.952,10.918 29.979,13.076 m 34.056,-98.237 c -0.699,0.698 -0.699,1.831 0,2.529 0.698,0.698 1.831,0.698 2.528,0 0.134,-0.133 0.233,-0.285 0.315,-0.444 0.351,-0.673 0.251,-1.52 -0.315,-2.085 -0.564,-0.564 -1.406,-0.665 -2.079,-0.318 -0.16,0.082 -0.315,0.183 -0.449,0.318 m -19.998,-9.09 c -0.798,0 -1.468,0.528 -1.698,1.251 -0.053,0.171 -0.091,0.349 -0.091,0.538 0,0.987 0.801,1.788 1.789,1.788 0.987,0 1.789,-0.801 1.789,-1.788 0,-0.187 -0.038,-0.364 -0.09,-0.532 -0.229,-0.726 -0.899,-1.257 -1.699,-1.257 m -22.357,9.502 c -0.563,0.563 -0.664,1.407 -0.318,2.08 0.082,0.161 0.183,0.314 0.318,0.449 0.698,0.699 1.832,0.699 2.529,0 0.7,-0.698 0.7,-1.831 0,-2.529 -0.132,-0.133 -0.285,-0.233 -0.443,-0.315 -0.674,-0.35 -1.521,-0.251 -2.086,0.315 m -9.091,22.527 c 0,0.799 0.529,1.467 1.251,1.696 0.172,0.055 0.35,0.092 0.538,0.092 0.988,0 1.788,-0.801 1.788,-1.788 0,-0.988 -0.8,-1.789 -1.788,-1.789 -0.186,0 -0.362,0.037 -0.532,0.09 -0.726,0.227 -1.257,0.897 -1.257,1.699 m 11.331,23.106 c 0.699,-0.697 0.699,-1.83 0,-2.528 -0.697,-0.699 -1.831,-0.699 -2.529,0 -0.133,0.133 -0.231,0.284 -0.313,0.443 -0.351,0.673 -0.251,1.521 0.313,2.085 0.565,0.565 1.408,0.665 2.082,0.319 0.159,-0.083 0.314,-0.184 0.447,-0.319 m 19.93,-2.749 c 10.895,0 19.759,-8.863 19.759,-19.758 0,-10.895 -8.864,-19.758 -19.759,-19.758 -10.894,0 -19.759,8.863 -19.759,19.758 0,10.895 8.865,19.758 19.759,19.758 m 0.77,11.09 c 0.797,0 1.466,-0.527 1.697,-1.249 0.053,-0.172 0.092,-0.35 0.092,-0.54 0,-0.987 -0.802,-1.788 -1.789,-1.788 -0.988,0 -1.789,0.801 -1.789,1.788 0,0.187 0.037,0.364 0.089,0.533 0.229,0.726 0.899,1.256 1.7,1.256 m 31.447,-32.03 c 0,-0.799 -0.529,-1.468 -1.251,-1.697 -0.172,-0.055 -0.35,-0.092 -0.538,-0.092 -0.988,0 -1.788,0.801 -1.788,1.789 0,0.986 0.8,1.788 1.788,1.788 0.186,0 0.363,-0.037 0.532,-0.09 0.726,-0.227 1.257,-0.897 1.257,-1.698 m -8.988,23.632 c 0.564,-0.564 0.665,-1.407 0.318,-2.08 -0.082,-0.16 -0.184,-0.314 -0.318,-0.448 -0.699,-0.7 -1.831,-0.7 -2.53,0 -0.698,0.697 -0.698,1.83 0,2.528 0.134,0.133 0.285,0.232 0.445,0.315 0.672,0.351 1.519,0.251 2.085,-0.315 m -22.459,58.652 c -0.988,0 -1.789,0.8 -1.789,1.788 0,0.988 0.801,1.788 1.789,1.788 0.987,0 1.789,-0.8 1.789,-1.788 0,-0.988 -0.802,-1.788 -1.789,-1.788 m -0.583,-163.984 c 0.987,0 1.789,-0.802 1.789,-1.789 0,-0.988 -0.802,-1.788 -1.789,-1.788 -0.988,0 -1.789,0.8 -1.789,1.788 0,0.987 0.801,1.789 1.789,1.789 m 43.663,143.727 c 0.499,-0.997 1.649,-2.529 3.134,-4.267 l -9.218,-9.22 c -0.401,0.509 -0.7,0.931 -0.832,1.199 -0.661,1.324 -2.271,1.862 -3.596,1.199 -1.322,-0.662 -1.86,-2.271 -1.197,-3.595 0.319,-0.641 0.974,-1.555 1.824,-2.604 l -1.445,-1.444 v -10e-4 l -10.553,-10.554 c -0.802,0.967 -1.388,1.754 -1.611,2.202 -0.807,1.611 -2.765,2.262 -4.375,1.457 -0.121,-0.059 -0.222,-0.137 -0.331,-0.209 -0.626,0.282 -1.259,0.547 -1.903,0.794 -0.766,0.92 -2.008,1.369 -3.238,1.082 -0.876,0.25 -1.762,0.478 -2.661,0.666 v 13.771 2.204 c 0.65,0.1 1.235,0.215 1.718,0.35 1.426,0.397 2.26,1.874 1.865,3.299 -0.398,1.426 -1.875,2.261 -3.3,1.864 -0.084,-0.023 -0.192,-0.043 -0.283,-0.065 v 12.914 c 1.498,0.159 2.81,0.369 3.794,0.642 1.199,0.334 2.04,1.299 2.295,2.434 10.833,-1.898 20.888,-6.078 29.637,-12.049 -0.13,-0.679 -0.057,-1.403 0.276,-2.069 m 14.914,-0.331 c 0.699,0.699 1.832,0.699 2.529,0 0.697,-0.698 0.697,-1.83 0,-2.529 -0.697,-0.698 -1.83,-0.698 -2.529,0 -0.699,0.699 -0.699,1.831 0,2.529 m -57.994,55.819 c -64.146,0 -116.332,-52.187 -116.332,-116.333 0,-64.146 52.186,-116.332 116.332,-116.332 64.145,0 116.333,52.186 116.333,116.332 0,64.146 -52.188,116.333 -116.333,116.333"
             style="fill:#EFE6CB;fill-opacity:1;fill-rule:nonzero;stroke:none"
             id="path43629" />
        </g>
      </g>
    </g>
  </g>
</svg>
